Verenigd Koninkrijk / Verenigde Staten
Actie / Thriller
106 minuten

geregisseerd door Marc Forster
met Daniel Craig, Mathieu Amalric en Judi Dench

Na het verraad van Vesper Lynd moet James Bond (Daniel Craig) moeite doen om zijn gevoelens buiten zijn missie te houden. Samen met M (Judi Dench) ondervraagt hij Mr White (Jesper Christensen), wiens bekentenissen tot meer inzicht leiden wat betreft de complexe afperspraktijken waar Lynd mee te maken had. Een nieuwe ontdekking brengt Bond naar Haïti, waar hij de even mooie als mysterieuze Camille (Olga Kurylenko) ontmoet.

General
Complete name                    : 007.E22.Quantum.of.Solace.2008.BluRay.720p.x264.AC3-CMCT 07.E22.Quantum.of.Solace.2008.BluRay.720p.x264.AC3-CMCT.mkv
Format                           : Matroska
File size                        : 2.40 GiB
Duration                         : 1h 46mn
Overall bit rate                 : 3 233 Kbps
Writing application              : AVI-Mux GUI 1.17.8, Aug 30 2008  12:36:58
Writing library                  : matroska muxer by Alexander Noe, build date Aug 30 2008

Video
ID                               : 1
Format                           : AVC
Format/Info                      : Advanced Video Codec
Format profile                   : High@L4.1
Format settings, CABAC           : Yes
Format settings, ReFrames        : 3 frames
Muxing mode                      : Container profile=Unknown@4.1
Codec ID                         : V_MPEG4/ISO/AVC
Duration                         : 1h 46mn
Bit rate                         : 2 782 Kbps
Width                            : 1 280 pixels
Height                           : 720 pixels
Display aspect ratio             : 16:9
Frame rate                       : 23.976 fps
Color space                      : YUV
Chroma subsampling               : 4:2:0
Bit depth                        : 8 bits
Scan type                        : Progressive
Bits/(Pixel*Frame)               : 0.126
Stream size                      : 2.02 GiB (84%)
Writing library                  : x264 core 80 r1376M 3feaec2
Encoding settings                : cabac=1 / ref=3 / deblock=1:-1:-1 / analyse=0x3:0x113 / me=umh / subme=7 / psy=1 / psy_rd=1.0:0.0 / mixed_ref=1 / me_range=16 / chroma_me=1 / trellis=1 / 8x8dct=1 / cqm=0 / deadzone=21,11 / fast_pskip=1 / chroma_qp_offset=-2 / threads=6 / sliced_threads=0 / nr=0 / decimate=1 / mbaff=0 / constrained_intra=0 / bframes=3 / b_pyramid=0 / b_adapt=1 / b_bias=0 / direct=1 / wpredb=1 / wpredp=2 / keyint=250 / keyint_min=25 / scenecut=40 / rc_lookahead=0 / rc=2pass / mbtree=0 / bitrate=2782 / ratetol=1.0 / qcomp=0.60 / qpmin=10 / qpmax=51 / qpstep=4 / cplxblur=20.0 / qblur=0.5 / vbv_maxrate=50000 / vbv_bufsize=50000 / ip_ratio=1.40 / pb_ratio=1.30 / aq=1:1.00
Language                         : English

Audio
ID                               : 2
Format                           : AC-3
Format/Info                      : Audio Coding 3
Mode extension                   : CM (complete main)
Codec ID                         : A_AC3
Duration                         : 1h 46mn
Bit rate mode                    : Constant
Bit rate                         : 448 Kbps
Channel(s)                       : 6 channels
Channel positions                : Front: L C R, Side: L R, LFE
Sampling rate                    : 48.0 KHz
Stream size                      : 340 MiB (14%)
Title                            : 英语
Language                         : English

